<?xml version="1.0" encoding="utf-8"?>
<!-- Generator: Adobe Illustrator 15.0.0, SVG Export Plug-In . SVG Version: 6.00 Build 0)  -->
<!DOCTYPE svg PUBLIC "-//W3C//DTD SVG 1.1//EN" "http://www.w3.org/Graphics/SVG/1.1/DTD/svg11.dtd">
<svg version="1.1"  xmlns="http://www.w3.org/2000/svg" xmlns:xlink="http://www.w3.org/1999/xlink" x="0px" y="0px"
	 width="48px" height="48px" viewBox="0 0 48 48" enable-background="new 0 0 48 48" xml:space="preserve">
<g>
	<path fill="#FFCC80" d="M33,23H21.889h-0.903V8.989C20.985,7.883,19.889,6,17.889,6S15,7.989,15,8.989S15,26,15,26
		s-3.625,2.301-5.015,4c-1.235,1.393-1.391,3.141,0,5l2.692,3.846C15.611,41.781,18.571,44,22.741,44h6.879
		c5.101,0,9.364-4.057,9.364-9.154c0,0,0.016-4.83,0.016-10.846L33,23z"/>
	<path fill="#FFCC80" d="M20.985,27.086c0,1.604,1.35,2.914,3,2.914c1.651,0,3-1.311,3-2.914V6.912c0-1.603-1.349-2.912-3-2.912
		c-1.65,0-3,1.31-3,2.912V27.086z"/>
	<path fill="#FFCC80" d="M32.984,31.086c0,1.604,1.351,2.914,3,2.914c1.652,0,3-1.311,3-2.914L39,12.912C39,11.31,37.65,10,36,10
		s-3,1.31-3,2.912L32.984,31.086z"/>
	<path fill="#FFCC80" d="M27,29.086C27,30.689,28.35,32,30,32s3-1.311,3-2.914V8.912C33,7.31,31.65,6,30,6s-3,1.31-3,2.912V29.086z"
		/>
</g>
<g>
	<path fill="#F2A25A" d="M14.985,35v-9c0,0-1.504,0.96-2.944,2.098L14.985,35z"/>
	<g>
		<path fill="#F2A25A" d="M21.008,9C21.006,9.008,21,9.029,21,9.029l0.008,13.978c0,0.552,0.447,1,1,1c0.553,0,1-0.448,1-1L21.008,9
			z"/>
	</g>
	<path fill="#F2A25A" d="M27.052,8.414c-0.021,0.119-0.03,0.239-0.036,0.361v0.002L27,24c0,0.552,0.447,1,1,1s1-0.448,1-1
		L27.052,8.414z"/>
	<path fill="#F2A25A" d="M33.037,12.637c-0.021,0.119-0.031,0.239-0.037,0.361V13v12.586c0,0.553,0.447,1,1,1s1-0.447,1-1
		L33.037,12.637z"/>
</g>
<g>
	<path fill="#FFEBEE" d="M15.889,9.1C15.9,7.928,16.803,6.987,17.911,7c1.103,0.013,1.99,0.975,1.977,2.143
		C19.876,10.315,15.877,10.271,15.889,9.1"/>
	<path fill="#FFEBEE" d="M22.001,7.1c0.012-1.172,0.914-2.112,2.022-2.1C25.126,5.013,26.014,5.975,26,7.143
		C25.988,8.315,21.989,8.271,22.001,7.1"/>
	<path fill="#FFEBEE" d="M28.016,9.1c0.012-1.172,0.914-2.112,2.022-2.1c1.103,0.013,1.989,0.975,1.978,2.143
		C32.003,10.315,28.004,10.271,28.016,9.1"/>
	<path fill="#FFEBEE" d="M34.001,13.1c0.013-1.172,0.914-2.112,2.022-2.1c1.103,0.013,1.99,0.975,1.977,2.143
		C37.988,14.315,33.988,14.271,34.001,13.1"/>
</g>
</svg>
